# xmcd
#
# Track frame offsets: 
#        183
#        17238
#        34450
#        63575
#
# Disc length: 1071 seconds
#
# Revision: 2
# Processed by: cddbd v1.5.2PL0 Copyright (c) Steve Scherf et al.
# Submitted via: ExactAudioCopy v1.0b3
#
DISCID=34042d04
DTITLE=Jon Secada - If You Go (MCD)
DYEAR=1994
DGENRE=Pop
TTITLE0=If You Go(Radio Edit)
TTITLE1=If You Go(Spanish Version)
TTITLE2=If You Go(Dance Mix)
TTITLE3=La La La(Album Version)
EXTD=
EXTT0=
EXTT1=
EXTT2=
EXTT3=
PLAYORDER=
